:SAMPLES-PER-SECOND 30
:FULLY-SPECIFIED
:DEGREES
673
root  48.308 34.7142 51.3329 -167.928 64.8699 -172.901
LeftUpLeg  -14.8091 13.04 10.2688
LeftLeg  16.2052 20.29 4.40282
LeftFoot  10.311 -0.34853 3.87127
LeftToes  -24.5842 1.61378e-006 8.80029e-008
Spine  2.36148 2.6934 2.0538
Spine1  4.6066 5.5182 3.89675
RightShoulder  0.144021 8.01391 6.41455
RightArm  -33.9008 -9.89772 69.4635
RightForeArm  34.7043 12.2153 2.18094
RightHand  0.542484 -7.51728 -7.86662
LeftShoulder1  0.0108677 -0.112625 -8.56337
LeftArm  -17.5587 12.3854 -72.5916
LeftForeArm  25.3208 -27.6866 -5.30175
LeftHand  0.0896363 3.001 3.0439
HEad  -10.2612 18.7087 -6.00886
RightUpLeg  -8.64651 -12.8357 5.27057
RightLeg  10.6658 2.34436 0.288403
RightFoot  -0.612996 -0.00228503 -0.0166378
RightToes  -21.2933 -0.088785 -0.187138
674
root  48.433 34.69 51.3732 -167.481 66.1723 -172.327
LeftUpLeg  -14.3462 12.8907 10.7019
LeftLeg  16.8004 21.4827 4.87641
LeftFoot  10.0679 -0.354684 4.02492
LeftToes  -24.7455 1.61378e-006 8.80029e-008
Spine  2.24502 2.62765 2.18675
Spine1  4.37099 5.37767 4.13164
RightShoulder  0.149544 7.94381 6.60637
RightArm  -36.1253 -10.7922 67.8538
RightForeArm  34.0609 11.5048 2.05106
RightHand  0.589041 -8.02098 -8.01014
LeftShoulder1  0.0104374 -0.132321 -8.88146
LeftArm  -17.637 14.1253 -72.062
LeftForeArm  24.3949 -28.8899 -5.57713
LeftHand  0.0884963 3.21132 2.7803
HEad  -9.96156 16.3442 -5.68956
RightUpLeg  -8.57846 -12.4388 5.43253
RightLeg  11.0663 3.16921 0.411819
RightFoot  -0.96932 -0.00311067 -0.0514119
RightToes  -20.5907 -0.0847761 -0.181555
675
root  48.5567 34.6703 51.4034 -166.9 67.5346 -171.655
LeftUpLeg  -13.8388 12.8734 11.0955
LeftLeg  17.2791 22.6191 5.31283
LeftFoot  9.8798 -0.361551 4.18123
LeftToes  -24.9475 1.61378e-006 8.80029e-008
Spine  2.15575 2.52057 2.34664
Spine1  4.18766 5.14868 4.42454
RightShoulder  0.151752 7.72547 6.77251
RightArm  -37.2089 -11.612 66.1891
RightForeArm  33.7142 11.3793 2.02837
RightHand  0.57522 -8.13846 -7.69615
LeftShoulder1  0.0100738 -0.00795374 -9.18734
LeftArm  -17.2126 15.6 -71.2704
LeftForeArm  23.9687 -31.1312 -6.10799
LeftHand  0.0564923 2.95998 1.81205
HEad  -9.9262 14.3183 -5.53043
RightUpLeg  -8.49003 -11.5595 5.58058
RightLeg  11.3575 3.58348 0.483933
RightFoot  -1.2213 -0.00488734 -0.0810429
RightToes  -20.0046 -0.081163 -0.176859
676
root  48.6773 34.6554 51.4338 -166.36 68.7393 -171.022
LeftUpLeg  -13.3683 12.8867 11.4358
LeftLeg  17.7356 23.5741 5.71514
LeftFoot  9.7337 -0.367342 4.31465
LeftToes  -25.0768 1.61378e-006 8.80029e-008
Spine  2.09119 2.34579 2.52311
Spine1  4.05216 4.77887 4.75615
RightShoulder  0.153262 7.47399 6.94796
RightArm  -37.2324 -12.4395 64.521
RightForeArm  33.3737 11.7416 2.095
RightHand  0.546215 -7.91125 -7.51054
LeftShoulder1  0.00976719 0.0634773 -9.30324
LeftArm  -16.7523 16.6108 -70.4005
LeftForeArm  24.0764 -33.9867 -6.82332
LeftHand  0.037271 2.6214 1.2556
HEad  -9.88552 12.7151 -5.3179
RightUpLeg  -8.48076 -11.0163 5.70276
RightLeg  11.8526 4.17 0.599485
RightFoot  -1.57381 -0.0069064 -0.125337
RightToes  -19.3594 -0.0779163 -0.171651
677
root  48.7864 34.6416 51.4682 -165.912 69.7137 -170.487
LeftUpLeg  -12.9964 12.8483 11.7175
LeftLeg  18.2075 24.3641 6.099
LeftFoot  9.59343 -0.370689 4.41528
LeftToes  -25.0245 1.61378e-006 8.80029e-008
Spine  2.02921 2.09941 2.72836
Spine1  3.91875 4.2619 5.15011
RightShoulder  0.154109 7.21536 7.18519
RightArm  -36.6018 -13.2591 62.8272
RightForeArm  32.7741 12.3922 2.21505
RightHand  0.538249 -7.72144 -7.58669
LeftShoulder1  0.00950792 0.121527 -9.32924
LeftArm  -16.0554 17.0084 -69.4093
LeftForeArm  24.7523 -37.2715 -7.71056
LeftHand  0.0425316 2.24675 1.79324
HEad  -9.77025 11.7298 -5.13683
RightUpLeg  -8.46422 -10.6331 5.80015
RightLeg  12.3124 4.71298 0.715804
RightFoot  -1.91232 -0.00919797 -0.173627
RightToes  -18.8256 -0.075262 -0.167313
678
root  48.8845 34.623 51.5132 -165.469 70.5221 -169.975
LeftUpLeg  -12.766 12.9154 11.9876
LeftLeg  18.7661 24.8941 6.47085
LeftFoot  9.45451 -0.369177 4.46213
LeftToes  -24.9793 1.61378e-006 8.80029e-008
Spine  1.96499 1.8364 2.95237
Spine1  3.77473 3.71005 5.58424
RightShoulder  0.15434 6.87878 7.46278
RightArm  -35.9768 -13.9473 61.2303
RightForeArm  32.0839 13.0157 2.33079
RightHand  0.533545 -7.54099 -7.70591
LeftShoulder1  0.00928636 0.15818 -9.32449
LeftArm  -15.1969 16.7243 -68.1531
LeftForeArm  25.9297 -40.7644 -8.74665
LeftHand  0.0372521 1.63656 2.22835
HEad  -9.6915 11.2813 -5.03386
RightUpLeg  -8.44134 -10.1641 5.92881
RightLeg  12.6725 4.99734 0.790896
RightFoot  -2.22433 -0.0115158 -0.215707
RightToes  -18.4204 -0.0728294 -0.164002
679
root  48.9544 34.5942 51.5752 -164.819 71.097 -169.241
LeftUpLeg  -12.7571 13.0133 12.3475
LeftLeg  19.5468 25.1904 6.89501
LeftFoot  9.30391 -0.362845 4.45692
LeftToes  -25.1956 1.61378e-006 8.80029e-008
Spine  1.89194 1.56655 3.21488
Spine1  3.60525 3.14348 6.09308
RightShoulder  0.153935 6.55509 7.77364
RightArm  -35.8008 -14.5777 59.7832
RightForeArm  31.2556 13.4962 2.42056
RightHand  0.533487 -7.44504 -7.80895
LeftShoulder1  0.00909286 0.207424 -9.39052
LeftArm  -13.9981 15.7534 -66.5194
LeftForeArm  27.1762 -44.4209 -9.95985
LeftHand  0.0243056 1.13572 2.06934
HEad  -9.64903 10.9236 -4.91755
RightUpLeg  -8.50306 -9.9896 6.17697
RightLeg  13.1056 5.36365 0.890129
RightFoot  -2.5533 -0.0143523 -0.266539
RightToes  -18.1221 -0.0728295 -0.161619
680
root  49.007 34.5597 51.6462 -164.018 71.5521 -168.333
LeftUpLeg  -12.8575 13.2362 12.7688
LeftLeg  20.4387 25.2575 7.31874
LeftFoot  9.11732 -0.350034 4.388
LeftToes  -25.4014 1.61378e-006 8.80029e-008
Spine  1.88243 1.3318 3.48261
Spine1  3.5589 2.64492 6.61103
RightShoulder  0.152876 6.35362 8.11995
RightArm  -36.4208 -15.0593 58.5394
RightForeArm  29.9875 13.8777 2.49244
RightHand  0.537377 -7.80119 -7.49273
LeftShoulder1  0.00891777 0.308076 -9.47568
LeftArm  -12.2761 14.0495 -64.4515
LeftForeArm  28.9665 -48.3271 -11.4436
LeftHand  0.00807041 0.629495 1.08712
HEad  -9.90133 10.4839 -4.87043
RightUpLeg  -8.57609 -10.0441 6.48873
RightLeg  13.5431 5.87161 1.02005
RightFoot  -2.88399 -0.0178023 -0.329723
RightToes  -17.8478 -0.0728295 -0.159642
681
root  49.0292 34.5258 51.7272 -163.167 72.0261 -167.394
LeftUpLeg  -13.0199 13.5396 13.1614
LeftLeg  21.3062 25.2809 7.72391
LeftFoot  8.97299 -0.340249 4.33428
LeftToes  -25.5543 1.61378e-006 8.80029e-008
Spine  1.93862 1.19322 3.74802
Spine1  3.65455 2.33686 7.13693
RightShoulder  0.151137 6.22992 8.36514
RightArm  -37.1271 -15.5213 57.5114
RightForeArm  27.4049 14.6893 2.64582
RightHand  0.529646 -8.87652 -6.44107
LeftShoulder1  0.00875143 0.43866 -9.45021
LeftArm  -10.2595 11.7456 -62.1632
LeftForeArm  31.4941 -52.3723 -13.2532
LeftHand  -4.06019e-005 -0.0170545 -0.162257
HEad  -10.3209 10.0315 -5.01189
RightUpLeg  -8.72756 -10.2464 6.7991
RightLeg  14.0095 6.53255 1.18899
RightFoot  -3.19089 -0.0217515 -0.403471
RightToes  -17.6581 -0.0728296 -0.157731
682
root  49.0247 34.5041 51.8056 -162.209 72.5663 -166.358
LeftUpLeg  -13.131 13.6942 13.5131
LeftLeg  22.0247 25.5208 8.12704
LeftFoot  8.82346 -0.333621 4.32218
LeftToes  -25.4365 1.61378e-006 8.80029e-008
Spine  2.02445 1.12389 3.98401
Spine1  3.82039 2.17555 7.60466
RightShoulder  0.148794 6.1576 8.5872
RightArm  -37.0918 -15.9309 56.6348
RightForeArm  24.4236 15.8956 2.8751
RightHand  0.46723 -9.50929 -5.23936
LeftShoulder1  0.0085842 0.554497 -9.4546
LeftArm  -8.94024 9.20348 -59.5888
LeftForeArm  34.1173 -56.2843 -15.3686
LeftHand  0.00989053 -0.905308 -1.63432
HEad  -11.0811 9.63014 -5.20645
RightUpLeg  -8.84672 -10.2376 7.09649
RightLeg  14.2827 7.08336 1.32349
RightFoot  -3.30082 -0.0238877 -0.451592
RightToes  -17.538 -0.0728296 -0.155582
683
root  49.0048 34.5021 51.8785 -161.191 73.307 -165.346
LeftUpLeg  -13.1195 13.7683 13.7443
LeftLeg  22.4232 26.0714 8.47871
LeftFoot  8.81489 -0.342437 4.44061
LeftToes  -25.0452 1.61378e-006 8.80029e-008
Spine  2.0828 1.11165 4.10875
Spine1  3.94319 2.15049 7.84177
RightShoulder  0.145723 6.12975 8.52013
RightArm  -37.1949 -16.0189 56.4142
RightForeArm  21.6545 17.1585 3.11762
RightHand  0.341673 -9.65812 -3.67012
LeftShoulder1  0.00840644 0.601032 -9.3278
LeftArm  -9.68025 6.80484 -57.0656
LeftForeArm  35.1786 -59.4883 -17.4762
LeftHand  0.0339379 -1.94307 -2.37955
HEad  -11.826 9.382 -5.32434
RightUpLeg  -8.86156 -9.95391 7.31408
RightLeg  14.1289 7.56114 1.39137
RightFoot  -3.19545 -0.0235321 -0.466201
RightToes  -17.0284 -0.0728297 -0.153499
